#!OML:ASF I:\salsa\salsa 7_09\Patient 1\Session 1\dancermale.ASF
:FULLY-SPECIFIED
:DEGREES
1767
root 3.46016 16.9218 9.25746 -171.744 -356.266 -539.967
lowerback -6.21819 -1.48754 0.866731
upperback -0.137984 -2.03362 0.328884
thorax 3.32457 -0.990451 -0.328954
lowerneck -5.48935 -11.4448 -7.62391
upperneck 19.6744 -13.7806 -1.04151
head 7.43429 -6.95439 -0.238402
rclavicle -2.49723e-014 1.35174e-014
rhumerus -39.4892 -25.9802 -50.7315
rradius 67.1388
rwrist -395.61
rhand -34.2721 -0.246177
rfingers 7.12502
rthumb -7.44223 -30.0953
lclavicle -2.49723e-014 1.35174e-014
lhumerus -55.5024 -28.1464 107.092
lradius 99.1292
lwrist 19.1463
lhand -7.7478 56.2072
lfingers 7.12502
lthumb 18.1515 -1354.62
rfemur -16.1038 2.259 0.886508
rtibia 25.8986
rfoot -11.7152 -15.1257
rtoes -20.9754
lfemur -14.9258 -11.4842 -2.2352
ltibia 22.4028
lfoot -29.3492 -7.33946
ltoes -40.3021
1768
root 3.73304 16.8619 9.29885 -171.589 -357.132 -539.842
lowerback -5.72061 -1.32127 1.35528
upperback -0.182046 -1.83584 0.221196
thorax 2.98325 -0.887434 -0.681929
lowerneck -5.1172 -11.5567 -8.68114
upperneck 19.3933 -14.0373 -0.011996
head 7.44807 -7.07115 0.234124
rclavicle 1.47846e-015 -2.18663e-015
rhumerus -38.9144 -26.8369 -50.3061
rradius 67.1586
rwrist -396.129
rhand -33.8801 -0.0157525
rfingers 7.12502
rthumb -7.06381 -29.8779
lclavicle 1.47846e-015 -2.18663e-015
lhumerus -55.4969 -27.9876 106.852
lradius 99.3179
lwrist 19.2423
lhand -7.86715 56.3014
lfingers 7.12502
lthumb 18.0367 -1354.51
rfemur -16.7531 -0.659084 2.31976
rtibia 27.4879
rfoot -13.8484 -14.9123
rtoes -21.5603
lfemur -16.1709 -10.5497 -0.968838
ltibia 23.9004
lfoot -29.1102 -7.69435
ltoes -40.7941
1769
root 3.99916 16.8063 9.37228 -171.141 -358.357 -539.48
lowerback -5.05471 -1.2211 2.18789
upperback -0.412736 -1.73083 0.193351
thorax 2.34907 -0.831212 -1.14785
lowerneck -4.23218 -11.7773 -9.98424
upperneck 18.6287 -14.4728 0.990456
head 7.2476 -7.30275 0.757414
rclavicle 2.09221e-014 -8.29926e-015
rhumerus -38.2933 -27.6639 -49.6768
rradius 66.9683
rwrist -396.828
rhand -33.2867 0.549667
rfingers 7.12502
rthumb -6.49101 -29.3309
lclavicle 2.09221e-014 -8.29926e-015
lhumerus -55.5649 -27.8324 106.773
lradius 99.4019
lwrist 19.2072
lhand -7.82057 56.2662
lfingers 7.12502
lthumb 18.0815 -1354.55
rfemur -17.9837 -3.20284 4.05065
rtibia 29.4186
rfoot -15.7953 -14.9649
rtoes -21.2514
lfemur -18.5404 -9.10766 0.614936
ltibia 26.382
lfoot -28.3614 -9.2323
ltoes -38.879
1770
root 4.25301 16.7541 9.4451 -170.993 -359.56 -539.239
lowerback -4.19512 -1.2016 3.01785
upperback -0.473543 -1.71979 0.103493
thorax 1.7784 -0.827915 -1.68118
lowerneck -2.73247 -12.073 -10.561
upperneck 16.7961 -14.9955 0.850801
head 6.46465 -7.62792 0.890165
rclavicle 1.07996e-014 -3.42904e-015
rhumerus -37.3828 -28.4929 -49.1774
rradius 66.8014
rwrist -397.695
rhand -32.4877 1.16398
rfingers 7.12502
rthumb -5.7196 -28.7388
lclavicle 1.07996e-014 -3.42904e-015
lhumerus -55.3845 -27.613 106.623
lradius 99.3302
lwrist 19.3722
lhand -8.35841 55.9306
lfingers 7.12502
lthumb 17.564 -1354.84
rfemur -18.8993 -4.93444 5.45162
rtibia 31.2182
rfoot -17.2469 -14.8299
rtoes -21.3431
lfemur -20.8107 -7.44383 1.77703
ltibia 29.2899
lfoot -26.9174 -11.0906
ltoes -35.5685
1771
root 4.49849 16.7083 9.51158 -171.077 -360.816 -539.258
lowerback -3.32677 -1.24524 3.57167
upperback -0.354292 -1.80737 0.0462043
thorax 1.39222 -0.889887 -2.03355
lowerneck -3.38392 -11.7041 -9.85327
upperneck 17.2592 -14.6119 1.5491
head 6.69246 -7.34505 0.990087
rclavicle 3.00227e-014 -7.50412e-015
rhumerus -36.2606 -29.3875 -48.574
rradius 66.8214
rwrist -398.428
rhand -31.2747 1.32702
rfingers 7.12502
rthumb -4.54837 -28.6041
lclavicle 3.00227e-014 -7.50412e-015
lhumerus -54.9496 -27.2761 106.662
lradius 99.1221
lwrist 19.4841
lhand -9.07142 55.7214
lfingers 7.12502
lthumb 16.8777 -1354.99
rfemur -19.4872 -6.04268 6.33194
rtibia 32.885
rfoot -18.4025 -14.5214
rtoes -21.1426
lfemur -23.0036 -5.56447 2.41619
ltibia 32.4234
lfoot -24.8062 -13.0144
ltoes -31.8341
1772
root 4.73699 16.6671 9.5877 -170.881 -362.232 -539.272
lowerback -2.6308 -1.31328 4.06069
upperback -0.370948 -1.88475 0.175398
thorax 0.969158 -0.935319 -2.1576
lowerneck -4.65209 -11.0608 -6.43652
upperneck 17.4529 -13.4732 -1.42954
head 6.43467 -6.78765 -0.369184
rclavicle 1.73937e-016 2.98177e-015
rhumerus -35.1938 -30.114 -47.5086
rradius 66.8066
rwrist -398.869
rhand -29.5519 1.72414
rfingers 7.12502
rthumb -2.88473 -28.2361
lclavicle 1.73937e-016 2.98177e-015
lhumerus -54.5618 -26.8181 107.162
lradius 98.9175
lwrist 19.0898
lhand -8.79655 56.0678
lfingers 7.12502
lthumb 17.1423 -1354.67
rfemur -20.6768 -7.09281 7.25498
rtibia 34.9322
rfoot -19.5187 -14.5144
rtoes -19.9357
lfemur -25.8454 -3.34983 2.97882
ltibia 35.8179
lfoot -21.9613 -15.2103
ltoes -26.7808
1773
root 4.97472 16.6387 9.65753 -170.87 -363.367 -539.292
lowerback -1.81163 -1.28689 4.34301
upperback -0.326279 -1.81837 0.327221
thorax 0.556628 -0.909647 -2.13616
lowerneck -4.63475 -11.0741 -6.35309
upperneck 17.2645 -13.5137 -1.37502
head 6.36957 -6.7987 -0.360159
rclavicle 5.61567e-015 -1.55052e-014
rhumerus -34.2269 -30.6767 -46.3262
rradius 66.8167
rwrist -399.333
rhand -27.5069 2.44141
rfingers 7.12502
rthumb -0.909662 -27.5364
lclavicle 5.61567e-015 -1.55052e-014
lhumerus -54.2105 -26.4445 107.814
lradius 98.7271
lwrist 18.6874
lhand -8.22779 56.4783
lfingers 7.12502
lthumb 17.6897 -1354.31
rfemur -21.8812 -7.85758 8.28835
rtibia 37.1292
rfoot -20.611 -14.9496
rtoes -18.9268
lfemur -28.2581 -0.952446 3.34219
ltibia 38.8484
lfoot -18.3753 -16.9048
ltoes -20.8297
